{
.appVersion = "1230";
customParameters = (
{
name = "Disable Subroutines";
value = 1;
}
);
date = "2019-08-16 14:45:22 +0000";
designer = Wkshps;
designerURL = "https://www.wkshps.com/";
familyName = Sheboygan;
fontMaster = (
{
ascender = 700;
capHeight = 700;
descender = 0;
horizontalStems = (
20
);
id = "95BE9FD8-0C22-4C70-810F-D75C3B89A2F9";
userData = {
GSCornerRadius = 15;
GSOffsetHorizontal = 10;
GSOffsetMakeStroke = 1;
GSOffsetVertical = 10;
};
verticalStems = (
20
);
xHeight = 350;
}
);
glyphs = (
{
glyphname = A;
lastChange = "2019-08-16 15:30:16 +0000";
layers = (
{
layerId = "95BE9FD8-0C22-4C70-810F-D75C3B89A2F9";
paths = (
{
closed = 0;
nodes = (
"200 350 LINE",
"438 700 LINE",
"667 350 LINE"
);
},
{
closed = 0;
nodes = (
"200 0 LINE",
"667 0 LINE"
);
}
);
width = 867;
}
);
unicode = 0041;
},
{
glyphname = B;
lastChange = "2019-08-16 15:32:24 +0000";
layers = (
{
layerId = "95BE9FD8-0C22-4C70-810F-D75C3B89A2F9";
paths = (
{
closed = 0;
nodes = (
"200 700 LINE",
"200 0 LINE"
);
},
{
closed = 0;
nodes = (
"550 0 LINE",
"667 175 LINE",
"550 350 LINE",
"667 525 LINE",
"550 700 LINE"
);
}
);
width = 867;
}
);
unicode = 0042;
},
{
glyphname = C;
lastChange = "2019-08-16 15:35:58 +0000";
layers = (
{
layerId = "95BE9FD8-0C22-4C70-810F-D75C3B89A2F9";
paths = (
{
closed = 0;
nodes = (
"666 0 LINE",
"200 0 LINE",
"200 700 LINE",
"666 700 LINE"
);
}
);
width = 867;
}
);
unicode = 0043;
},
{
glyphname = D;
lastChange = "2019-08-16 15:35:58 +0000";
layers = (
{
layerId = "95BE9FD8-0C22-4C70-810F-D75C3B89A2F9";
paths = (
{
closed = 0;
nodes = (
"200 700 LINE",
"200 0 LINE"
);
},
{
closed = 0;
nodes = (
"433 0 LINE",
"666 350 LINE",
"433 700 LINE"
);
}
);
width = 867;
}
);
unicode = 0044;
},
{
glyphname = E;
lastChange = "2019-08-16 15:35:58 +0000";
layers = (
{
layerId = "95BE9FD8-0C22-4C70-810F-D75C3B89A2F9";
paths = (
{
closed = 0;
nodes = (
"200 0 LINE",
"200 700 LINE"
);
},
{
closed = 0;
nodes = (
"433 350 LINE",
"666 350 LINE"
);
},
{
closed = 0;
nodes = (
"433 700 LINE",
"666 700 LINE"
);
},
{
closed = 0;
nodes = (
"433 0 LINE",
"666 0 LINE"
);
}
);
width = 867;
}
);
unicode = 0045;
},
{
glyphname = F;
lastChange = "2019-08-16 15:35:58 +0000";
layers = (
{
layerId = "95BE9FD8-0C22-4C70-810F-D75C3B89A2F9";
paths = (
{
closed = 0;
nodes = (
"200 0 LINE",
"200 700 LINE"
);
},
{
closed = 0;
nodes = (
"433 350 LINE",
"666 350 LINE"
);
},
{
closed = 0;
nodes = (
"433 700 LINE",
"666 700 LINE"
);
}
);
width = 867;
}
);
unicode = 0046;
},
{
glyphname = G;
lastChange = "2019-08-16 15:35:58 +0000";
layers = (
{
layerId = "95BE9FD8-0C22-4C70-810F-D75C3B89A2F9";
paths = (
{
closed = 0;
nodes = (
"666 350 LINE",
"666 0 LINE"
);
},
{
closed = 0;
nodes = (
"666 700 LINE",
"200 700 LINE",
"200 0 LINE",
"433 0 LINE"
);
}
);
width = 867;
}
);
unicode = 0047;
},
{
glyphname = H;
lastChange = "2019-08-16 15:35:58 +0000";
layers = (
{
layerId = "95BE9FD8-0C22-4C70-810F-D75C3B89A2F9";
paths = (
{
closed = 0;
nodes = (
"200 700 LINE",
"200 0 LINE"
);
},
{
closed = 0;
nodes = (
"666 700 LINE",
"666 0 LINE"
);
},
{
closed = 0;
nodes = (
"316 350 LINE",
"550 350 LINE"
);
}
);
width = 867;
}
);
unicode = 0048;
},
{
glyphname = I;
lastChange = "2019-08-16 15:35:58 +0000";
layers = (
{
layerId = "95BE9FD8-0C22-4C70-810F-D75C3B89A2F9";
paths = (
{
closed = 0;
nodes = (
"666 700 LINE",
"200 700 LINE"
);
},
{
closed = 0;
nodes = (
"666 0 LINE",
"200 0 LINE"
);
},
{
closed = 0;
nodes = (
"433 525 LINE",
"433 175 LINE"
);
}
);
width = 867;
}
);
unicode = 0049;
},
{
glyphname = J;
lastChange = "2019-08-16 15:35:58 +0000";
layers = (
{
layerId = "95BE9FD8-0C22-4C70-810F-D75C3B89A2F9";
paths = (
{
closed = 0;
nodes = (
"666 700 LINE",
"666 0 LINE"
);
},
{
closed = 0;
nodes = (
"200 350 LINE",
"200 0 LINE",
"433 0 LINE"
);
}
);
width = 867;
}
);
unicode = 004A;
},
{
glyphname = K;
lastChange = "2019-08-16 15:32:24 +0000";
layers = (
{
layerId = "95BE9FD8-0C22-4C70-810F-D75C3B89A2F9";
paths = (
{
closed = 0;
nodes = (
"200 700 LINE",
"200 0 LINE"
);
},
{
closed = 0;
nodes = (
"667 700 LINE",
"433 350 LINE",
"667 0 LINE"
);
}
);
width = 867;
}
);
unicode = 004B;
},
{
glyphname = L;
lastChange = "2019-08-16 15:32:24 +0000";
layers = (
{
layerId = "95BE9FD8-0C22-4C70-810F-D75C3B89A2F9";
paths = (
{
closed = 0;
nodes = (
"200 0 LINE",
"200 700 LINE"
);
},
{
closed = 0;
nodes = (
"434 0 LINE",
"667 0 LINE"
);
}
);
width = 867;
}
);
unicode = 004C;
},
{
glyphname = M;
lastChange = "2019-08-16 15:35:58 +0000";
layers = (
{
layerId = "95BE9FD8-0C22-4C70-810F-D75C3B89A2F9";
paths = (
{
closed = 0;
nodes = (
"666 350 LINE",
"666 0 LINE"
);
},
{
closed = 0;
nodes = (
"200 350 LINE",
"200 0 LINE"
);
},
{
closed = 0;
nodes = (
"666 700 LINE",
"433 350 LINE",
"200 700 LINE"
);
}
);
width = 867;
}
);
unicode = 004D;
},
{
glyphname = N;
lastChange = "2019-08-16 15:35:58 +0000";
layers = (
{
layerId = "95BE9FD8-0C22-4C70-810F-D75C3B89A2F9";
paths = (
{
closed = 0;
nodes = (
"550 175 LINE",
"316 525 LINE"
);
},
{
closed = 0;
nodes = (
"200 700 LINE",
"200 0 LINE"
);
},
{
closed = 0;
nodes = (
"666 700 LINE",
"666 0 LINE"
);
}
);
width = 867;
}
);
unicode = 004E;
},
{
glyphname = O;
lastChange = "2019-08-16 15:35:58 +0000";
layers = (
{
layerId = "95BE9FD8-0C22-4C70-810F-D75C3B89A2F9";
paths = (
{
closed = 1;
nodes = (
"200 0 LINE",
"200 700 LINE",
"666 700 LINE",
"666 0 LINE"
);
}
);
width = 867;
}
);
unicode = 004F;
},
{
glyphname = P;
lastChange = "2019-08-16 15:35:58 +0000";
layers = (
{
layerId = "95BE9FD8-0C22-4C70-810F-D75C3B89A2F9";
paths = (
{
closed = 0;
nodes = (
"550 350 LINE",
"666 525 LINE",
"550 700 LINE"
);
},
{
closed = 0;
nodes = (
"200 700 LINE",
"200 0 LINE"
);
}
);
width = 867;
}
);
unicode = 0050;
},
{
glyphname = Q;
lastChange = "2019-08-16 15:35:58 +0000";
layers = (
{
layerId = "95BE9FD8-0C22-4C70-810F-D75C3B89A2F9";
paths = (
{
closed = 0;
nodes = (
"666 0 LINE",
"433 350 LINE"
);
},
{
closed = 0;
nodes = (
"433 0 LINE",
"200 0 LINE",
"200 700 LINE",
"666 700 LINE",
"666 350 LINE"
);
}
);
width = 867;
}
);
unicode = 0051;
},
{
glyphname = R;
lastChange = "2019-08-16 15:35:58 +0000";
layers = (
{
layerId = "95BE9FD8-0C22-4C70-810F-D75C3B89A2F9";
paths = (
{
closed = 0;
nodes = (
"666 0 LINE",
"550 175 LINE"
);
},
{
closed = 0;
nodes = (
"550 350 LINE",
"666 525 LINE",
"550 700 LINE"
);
},
{
closed = 0;
nodes = (
"200 700 LINE",
"200 0 LINE"
);
}
);
width = 867;
}
);
unicode = 0052;
},
{
glyphname = S;
lastChange = "2019-08-16 15:35:58 +0000";
layers = (
{
layerId = "95BE9FD8-0C22-4C70-810F-D75C3B89A2F9";
paths = (
{
closed = 0;
nodes = (
"666 700 LINE",
"200 700 LINE",
"200 350 LINE"
);
},
{
closed = 0;
nodes = (
"666 350 LINE",
"666 0 LINE",
"200 0 LINE"
);
}
);
width = 867;
}
);
unicode = 0053;
},
{
glyphname = T;
lastChange = "2019-08-16 15:35:58 +0000";
layers = (
{
layerId = "95BE9FD8-0C22-4C70-810F-D75C3B89A2F9";
paths = (
{
closed = 0;
nodes = (
"666 700 LINE",
"200 700 LINE"
);
},
{
closed = 0;
nodes = (
"433 350 LINE",
"433 0 LINE"
);
}
);
width = 867;
}
);
unicode = 0054;
},
{
glyphname = U;
lastChange = "2019-08-16 15:32:24 +0000";
layers = (
{
layerId = "95BE9FD8-0C22-4C70-810F-D75C3B89A2F9";
paths = (
{
closed = 0;
nodes = (
"667 0 LINE",
"200 0 LINE"
);
},
{
closed = 0;
nodes = (
"200 700 LINE",
"200 350 LINE"
);
},
{
closed = 0;
nodes = (
"667 700 LINE",
"667 350 LINE"
);
}
);
width = 867;
}
);
unicode = 0055;
},
{
glyphname = V;
lastChange = "2019-08-16 15:32:24 +0000";
layers = (
{
layerId = "95BE9FD8-0C22-4C70-810F-D75C3B89A2F9";
paths = (
{
closed = 0;
nodes = (
"317 175 LINE",
"434 0 LINE",
"550 175 LINE"
);
},
{
closed = 0;
nodes = (
"200 700 LINE",
"200 350 LINE"
);
},
{
closed = 0;
nodes = (
"667 700 LINE",
"667 350 LINE"
);
}
);
width = 867;
}
);
unicode = 0056;
},
{
glyphname = W;
lastChange = "2019-08-16 15:35:58 +0000";
layers = (
{
layerId = "95BE9FD8-0C22-4C70-810F-D75C3B89A2F9";
paths = (
{
closed = 0;
nodes = (
"200 350 LINE",
"200 700 LINE"
);
},
{
closed = 0;
nodes = (
"666 350 LINE",
"666 700 LINE"
);
},
{
closed = 0;
nodes = (
"200 0 LINE",
"433 350 LINE",
"666 0 LINE"
);
}
);
width = 867;
}
);
unicode = 0057;
},
{
glyphname = X;
lastChange = "2019-08-16 15:35:58 +0000";
layers = (
{
layerId = "95BE9FD8-0C22-4C70-810F-D75C3B89A2F9";
paths = (
{
closed = 0;
nodes = (
"200 700 LINE",
"316 525 LINE"
);
},
{
closed = 0;
nodes = (
"550 175 LINE",
"666 0 LINE"
);
},
{
closed = 0;
nodes = (
"666 700 LINE",
"200 0 LINE"
);
}
);
width = 867;
}
);
unicode = 0058;
},
{
glyphname = Y;
lastChange = "2019-08-16 15:35:58 +0000";
layers = (
{
layerId = "95BE9FD8-0C22-4C70-810F-D75C3B89A2F9";
paths = (
{
closed = 0;
nodes = (
"200 700 LINE",
"316 525 LINE"
);
},
{
closed = 0;
nodes = (
"666 700 LINE",
"200 0 LINE"
);
}
);
width = 867;
}
);
unicode = 0059;
},
{
glyphname = Z;
lastChange = "2019-08-16 15:32:24 +0000";
layers = (
{
layerId = "95BE9FD8-0C22-4C70-810F-D75C3B89A2F9";
paths = (
{
closed = 0;
nodes = (
"550 525 LINE",
"317 175 LINE"
);
},
{
closed = 0;
nodes = (
"200 0 LINE",
"667 0 LINE"
);
},
{
closed = 0;
nodes = (
"200 700 LINE",
"667 700 LINE"
);
}
);
width = 867;
}
);
unicode = 005A;
},
{
glyphname = zero;
lastChange = "2019-08-16 15:32:24 +0000";
layers = (
{
layerId = "95BE9FD8-0C22-4C70-810F-D75C3B89A2F9";
paths = (
{
closed = 1;
nodes = (
"200 0 LINE",
"200 700 LINE",
"667 700 LINE",
"667 0 LINE"
);
},
{
closed = 0;
nodes = (
"550 525 LINE",
"317 175 LINE"
);
}
);
width = 867;
}
);
unicode = 0030;
},
{
glyphname = one;
lastChange = "2019-08-16 15:32:24 +0000";
layers = (
{
layerId = "95BE9FD8-0C22-4C70-810F-D75C3B89A2F9";
paths = (
{
closed = 0;
nodes = (
"434 700 LINE",
"434 175 LINE"
);
},
{
closed = 0;
nodes = (
"200 525 LINE",
"317 700 LINE"
);
},
{
closed = 0;
nodes = (
"200 0 LINE",
"667 0 LINE"
);
}
);
width = 867;
}
);
unicode = 0031;
},
{
glyphname = two;
lastChange = "2019-08-16 15:36:07 +0000";
layers = (
{
layerId = "95BE9FD8-0C22-4C70-810F-D75C3B89A2F9";
paths = (
{
closed = 0;
nodes = (
"550 525 LINE",
"316 175 LINE"
);
},
{
closed = 0;
nodes = (
"200 0 LINE",
"666 0 LINE"
);
},
{
closed = 0;
nodes = (
"200 700 LINE",
"666 700 LINE"
);
},
{
closed = 0;
nodes = (
"200 700 LINE",
"200 525 LINE"
);
}
);
width = 867;
}
);
unicode = 0032;
},
{
glyphname = three;
lastChange = "2019-08-16 15:36:07 +0000";
layers = (
{
layerId = "95BE9FD8-0C22-4C70-810F-D75C3B89A2F9";
paths = (
{
closed = 0;
nodes = (
"666 700 LINE",
"666 0 LINE"
);
},
{
closed = 0;
nodes = (
"433 350 LINE",
"200 350 LINE"
);
},
{
closed = 0;
nodes = (
"433 0 LINE",
"200 0 LINE"
);
},
{
closed = 0;
nodes = (
"433 700 LINE",
"200 700 LINE"
);
}
);
width = 867;
}
);
unicode = 0033;
},
{
glyphname = four;
lastChange = "2019-08-16 15:32:24 +0000";
layers = (
{
layerId = "95BE9FD8-0C22-4C70-810F-D75C3B89A2F9";
paths = (
{
closed = 0;
nodes = (
"317 350 LINE",
"550 350 LINE"
);
},
{
closed = 0;
nodes = (
"200 700 LINE",
"200 350 LINE"
);
},
{
closed = 0;
nodes = (
"667 700 LINE",
"667 0 LINE"
);
}
);
width = 867;
}
);
unicode = 0034;
},
{
glyphname = five;
lastChange = "2019-08-16 15:32:24 +0000";
layers = (
{
layerId = "95BE9FD8-0C22-4C70-810F-D75C3B89A2F9";
paths = (
{
closed = 0;
nodes = (
"317 350 LINE",
"550 350 LINE"
);
},
{
closed = 0;
nodes = (
"667 700 LINE",
"200 700 LINE",
"200 350 LINE"
);
},
{
closed = 0;
nodes = (
"667 350 LINE",
"667 0 LINE",
"200 0 LINE"
);
}
);
width = 867;
}
);
unicode = 0035;
},
{
glyphname = six;
lastChange = "2019-08-16 15:32:24 +0000";
layers = (
{
layerId = "95BE9FD8-0C22-4C70-810F-D75C3B89A2F9";
paths = (
{
closed = 0;
nodes = (
"317 350 LINE",
"550 350 LINE"
);
},
{
closed = 0;
nodes = (
"667 0 LINE",
"200 0 LINE",
"200 700 LINE",
"667 700 LINE"
);
},
{
closed = 0;
nodes = (
"667 0 LINE",
"667 350 LINE"
);
}
);
width = 867;
}
);
unicode = 0036;
},
{
glyphname = seven;
lastChange = "2019-08-16 15:32:24 +0000";
layers = (
{
layerId = "95BE9FD8-0C22-4C70-810F-D75C3B89A2F9";
paths = (
{
closed = 0;
nodes = (
"200 700 LINE",
"433 700 LINE"
);
},
{
closed = 0;
nodes = (
"667 700 LINE",
"200 0 LINE"
);
}
);
width = 867;
}
);
unicode = 0037;
},
{
glyphname = eight;
lastChange = "2019-08-16 15:32:24 +0000";
layers = (
{
layerId = "95BE9FD8-0C22-4C70-810F-D75C3B89A2F9";
paths = (
{
closed = 0;
nodes = (
"550 0 LINE",
"667 175 LINE",
"550 350 LINE",
"667 525 LINE",
"550 700 LINE"
);
},
{
closed = 0;
nodes = (
"317 700 LINE",
"200 525 LINE",
"317 350 LINE",
"200 175 LINE",
"317 0 LINE"
);
}
);
width = 867;
}
);
unicode = 0038;
},
{
glyphname = nine;
lastChange = "2019-08-16 15:32:24 +0000";
layers = (
{
layerId = "95BE9FD8-0C22-4C70-810F-D75C3B89A2F9";
paths = (
{
closed = 0;
nodes = (
"317 350 LINE",
"200 525 LINE",
"317 700 LINE"
);
},
{
closed = 0;
nodes = (
"667 700 LINE",
"667 0 LINE"
);
}
);
width = 867;
}
);
unicode = 0039;
},
